<?xml version="1.0" encoding="UTF-8" standalone="no"?>
<!-- Created with Inkscape (http://www.inkscape.org/) -->

<svg
   width="24"
   height="24"
   viewBox="0 0 67.870049 67.852585"
   version="1.1"
   id="svg1"
   xml:space="preserve"
   xmlns="http://www.w3.org/2000/svg"
   xmlns:svg="http://www.w3.org/2000/svg"><defs
     id="defs1" /><g
     id="layer1"
     transform="translate(-70.450387,-112.8833)"><ellipse
       style="fill:#ffffff;fill-opacity:1;stroke:#000000;stroke-width:0.270513;stroke-opacity:0"
       id="path5"
       cx="104.39151"
       cy="146.769"
       rx="33.938366"
       ry="33.920975" /><path
       style="fill:#d80027;fill-opacity:1;stroke:#000000;stroke-width:0.264999;stroke-opacity:0"
       d="m 100.57946,113.19981 c 0.75139,-0.0613 2.25418,-0.18401 3.75698,-0.18401 1.50281,0 3.00556,0.12267 4.50835,0.24535 0.0153,9.67612 0.0307,19.35223 0.046,29.02835 9.69145,0 19.3829,0 29.07435,0 0.10734,1.56413 0.21468,3.12825 0.22235,4.63872 0.008,1.51047 -0.0843,2.96723 -0.17635,4.42401 -9.72212,-0.0153 -19.44423,-0.0307 -29.16635,-0.046 0,9.70679 0,19.41357 0,29.12036 -1.51812,0.092 -3.03625,0.18401 -4.54672,0.17634 -1.51047,-0.008 -3.01323,-0.11501 -4.516017,-0.22235 0.02169,-9.67964 0.04338,-19.35927 0.06507,-29.03891 -9.67934,-0.011 -19.35868,-0.0221 -29.03802,-0.0331 -0.110243,-1.4993 -0.220486,-2.99861 -0.225997,-4.50344 -0.0055,-1.50484 0.0937,-3.01513 0.192924,-4.52546 9.701389,0.022 19.402777,0.0441 29.104166,0.0661 -0.01738,-9.69489 -0.03476,-19.38979 -0.05214,-29.08468 0,0 1e-5,6e-5 0.751404,-0.0613 z"
       id="path1" /><path
       style="fill:#0052b4;fill-opacity:1;stroke:#000000;stroke-width:0.264999;stroke-opacity:0"
       d="m 85.708462,121.95087 c 1.967837,1.96232 5.903516,5.88698 9.839193,9.81163 0,0 0.03307,-17.76016 0.03307,-17.76016 -2.078694,0.71127 -4.157347,1.42253 -6.130736,2.42025 -1.973389,0.99772 -3.841359,2.28182 -5.709368,3.56595 10e-7,0 3e-6,0 1.967841,1.96233 z"
       id="path2" /><path
       style="fill:#d80027;fill-opacity:1;stroke:#000000;stroke-width:0.264999;stroke-opacity:0"
       d="m 80.433332,122.83281 c 0,0 -2.017448,2.24896 -2.017448,2.24896 0,0 12.931511,12.93151 12.931511,12.93151 0,0 4.299479,0.0661 4.299479,0.0661 z"
       id="path3" /><path
       style="fill:#0052b4;fill-opacity:1;stroke:#000000;stroke-width:0.264999;stroke-opacity:0"
       d="m 77.489843,126.17318 c -0.87092,1.41111 -1.741841,2.82222 -2.502517,4.21128 -0.760677,1.38906 -1.411113,2.75608 -1.94028,4.02387 -0.529166,1.2678 -0.937065,2.43637 -1.344964,3.60495 0,0 17.594792,-0.0331 17.594792,-0.0331 z"
       id="path4" /><path
       style="fill:#0052b4;fill-opacity:1;stroke:#000000;stroke-width:0.264999;stroke-opacity:0"
       d="m 85.708462,121.95087 c 1.967837,1.96232 5.903516,5.88698 9.839193,9.81163 0,0 0.03307,-17.76016 0.03307,-17.76016 -2.078694,0.71127 -4.157347,1.42253 -6.130736,2.42025 -1.973389,0.99772 -3.841359,2.28182 -5.709368,3.56595 10e-7,0 3e-6,0 1.967841,1.96233 z"
       id="path2-7"
       transform="matrix(-1.0000046,0,0,0.99999997,208.8717,-0.09499989)" /><path
       style="fill:#d80027;fill-opacity:1;stroke:#000000;stroke-width:0.264999;stroke-opacity:0"
       d="m 80.433332,122.83281 c 0,0 -2.017448,2.24896 -2.017448,2.24896 0,0 12.931511,12.93151 12.931511,12.93151 0,0 4.299479,0.0661 4.299479,0.0661 z"
       id="path3-1"
       transform="matrix(0,0.99434259,-1.0000577,0,251.25586,42.824151)" /><path
       style="fill:#0052b4;fill-opacity:1;stroke:#000000;stroke-width:0.264999;stroke-opacity:0"
       d="m 77.489843,126.17318 c -0.87092,1.41111 -1.741841,2.82222 -2.502517,4.21128 -0.760677,1.38906 -1.411113,2.75608 -1.94028,4.02387 -0.529166,1.2678 -0.937065,2.43637 -1.344964,3.60495 0,0 17.594792,-0.0331 17.594792,-0.0331 z"
       id="path4-1"
       transform="matrix(-1.0000046,0,0,0.99999997,208.8717,-0.09499989)" /><path
       style="fill:#0052b4;fill-opacity:1;stroke:#000000;stroke-width:0.264999;stroke-opacity:0"
       d="m 85.708462,121.95087 c 1.967837,1.96232 5.903516,5.88698 9.839193,9.81163 0,0 0.03307,-17.76016 0.03307,-17.76016 -2.078694,0.71127 -4.157347,1.42253 -6.130736,2.42025 -1.973389,0.99772 -3.841359,2.28182 -5.709368,3.56595 10e-7,0 3e-6,0 1.967841,1.96233 z"
       id="path2-7-3"
       transform="matrix(0,-1.0000046,-0.99999997,0,251.14446,251.34351)" /><path
       style="fill:#d80027;fill-opacity:1;stroke:#000000;stroke-width:0.264999;stroke-opacity:0"
       d="m 80.433332,122.83281 c 0,0 -2.017448,2.24896 -2.017448,2.24896 0,0 12.931511,12.93151 12.931511,12.93151 0,0 4.299479,0.0661 4.299479,0.0661 z"
       id="path3-1-2"
       transform="matrix(-0.99434259,0,0,-1.0000577,208.22531,293.72767)" /><path
       style="fill:#0052b4;fill-opacity:1;stroke:#000000;stroke-width:0.264999;stroke-opacity:0"
       d="m 77.489843,126.17318 c -0.87092,1.41111 -1.741841,2.82222 -2.502517,4.21128 -0.760677,1.38906 -1.411113,2.75608 -1.94028,4.02387 -0.529166,1.2678 -0.937065,2.43637 -1.344964,3.60495 0,0 17.594792,-0.0331 17.594792,-0.0331 z"
       id="path4-1-2"
       transform="matrix(0,-1.0000046,-0.99999997,0,251.14446,251.34351)" /><path
       style="fill:#0052b4;fill-opacity:1;stroke:#000000;stroke-width:0.264999;stroke-opacity:0"
       d="m 85.708462,121.95087 c 1.967837,1.96232 5.903516,5.88698 9.839193,9.81163 0,0 0.03307,-17.76016 0.03307,-17.76016 -2.078694,0.71127 -4.157347,1.42253 -6.130736,2.42025 -1.973389,0.99772 -3.841359,2.28182 -5.709368,3.56595 10e-7,0 3e-6,0 1.967841,1.96233 z"
       id="path2-7-3-8"
       transform="matrix(1.0000046,0,0,-0.99999997,-0.05269901,293.67346)" /><path
       style="fill:#d80027;fill-opacity:1;stroke:#000000;stroke-width:0.264999;stroke-opacity:0"
       d="m 80.433332,122.83281 c 0,0 -2.017448,2.24896 -2.017448,2.24896 0,0 12.931511,12.93151 12.931511,12.93151 0,0 4.299479,0.0661 4.299479,0.0661 z"
       id="path3-1-2-9"
       transform="matrix(0,-0.99434259,1.0000577,0,-42.436859,250.75431)" /><path
       style="fill:#0052b4;fill-opacity:1;stroke:#000000;stroke-width:0.264999;stroke-opacity:0"
       d="m 77.489843,126.17318 c -0.87092,1.41111 -1.741841,2.82222 -2.502517,4.21128 -0.760677,1.38906 -1.411113,2.75608 -1.94028,4.02387 -0.529166,1.2678 -0.937065,2.43637 -1.344964,3.60495 0,0 17.594792,-0.0331 17.594792,-0.0331 z"
       id="path4-1-2-2"
       transform="matrix(1.0000046,0,0,-0.99999997,-0.05269901,293.67346)" /></g></svg>
