<?xml version="1.0" encoding="UTF-8" standalone="no"?>
<!-- Created with Inkscape (http://www.inkscape.org/) -->

<svg
   width="24"
   height="24"
   viewBox="0 0 67.557084 67.564469"
   version="1.1"
   id="svg1"
   xml:space="preserve"
   xmlns="http://www.w3.org/2000/svg"
   xmlns:svg="http://www.w3.org/2000/svg"><defs
     id="defs1" /><g
     id="layer1"
     transform="translate(-62.892032,-115.23335)"><path
       style="fill:#0052b4;fill-opacity:1;stroke:#000000;stroke-width:0.264999;stroke-opacity:0"
       d="m 84.875078,117.11663 c -1.620165,0.78395 -3.240326,1.56791 -4.933062,2.58081 -1.692736,1.0129 -3.45797,2.2547 -5.061257,3.61474 -1.603287,1.36005 -3.044532,2.83825 -4.356473,4.47356 -1.31194,1.63531 -2.494501,3.42763 -3.45536,5.21077 -0.960858,1.78313 -1.699958,3.55697 -2.318973,5.47869 -0.619014,1.92172 -1.117909,3.99121 -1.413557,5.58956 -0.295647,1.59835 -0.388034,2.72547 -0.406511,4.0559 -0.01848,1.33042 0.03696,2.86406 0.230977,4.601 0.194021,1.73694 0.526616,3.67708 1.053242,5.56184 0.526626,1.88476 1.247252,3.71404 2.134202,5.48793 0.88695,1.7739 1.940169,3.49231 3.132007,5.07218 1.191837,1.57988 2.522215,3.02112 3.898834,4.34231 1.376618,1.32118 2.799388,2.52222 4.212959,3.52003 1.41357,0.99781 2.817865,1.79235 4.055894,2.41351 1.23803,0.62116 2.309726,1.06891 3.381444,1.51667 z"
       id="path5"
       transform="translate(0.09799383,0.17638889)" /><path
       style="fill:#ff0000;fill-opacity:1;stroke:#000000;stroke-width:0.264999;stroke-opacity:0"
       d="m 84.875078,117.11663 c -1.620165,0.78395 -3.240326,1.56791 -4.933062,2.58081 -1.692736,1.0129 -3.45797,2.2547 -5.061257,3.61474 -1.603287,1.36005 -3.044532,2.83825 -4.356473,4.47356 -1.31194,1.63531 -2.494501,3.42763 -3.45536,5.21077 -0.960858,1.78313 -1.699958,3.55697 -2.318973,5.47869 -0.619014,1.92172 -1.117909,3.99121 -1.413557,5.58956 -0.295647,1.59835 -0.388034,2.72547 -0.406511,4.0559 -0.01848,1.33042 0.03696,2.86406 0.230977,4.601 0.194021,1.73694 0.526616,3.67708 1.053242,5.56184 0.526626,1.88476 1.247252,3.71404 2.134202,5.48793 0.88695,1.7739 1.940169,3.49231 3.132007,5.07218 1.191837,1.57988 2.522215,3.02112 3.898834,4.34231 1.376618,1.32118 2.799388,2.52222 4.212959,3.52003 1.41357,0.99781 2.817865,1.79235 4.055894,2.42984 1.238029,0.63749 2.309726,1.11791 3.381444,1.59833 z"
       id="path5-3"
       transform="matrix(-1,0,0,1,193.24315,0.09811701)" /><path
       style="fill:#ffffff;fill-opacity:1;stroke:#000000;stroke-width:0.264999;stroke-opacity:0"
       d="m 85.833233,117.03159 c 0.859223,-0.23098 2.577665,-0.69292 4.443953,-1.04401 1.866288,-0.35108 3.880338,-0.59129 6.079231,-0.619 2.198892,-0.0277 4.582493,0.15706 6.615073,0.49891 2.03259,0.34184 3.71404,0.84074 5.39553,1.33964 0.0185,21.2311 0.0369,42.46219 0.0554,63.69329 -1.64453,0.42499 -3.28907,0.84999 -5.27547,1.18259 -1.98639,0.33261 -4.314558,0.57282 -6.559645,0.58205 -2.245086,0.009 -4.406956,-0.21249 -6.310195,-0.57282 -1.903239,-0.36032 -3.547739,-0.85922 -5.192272,-1.35812 -0.03696,-21.15719 -0.07391,-42.31437 -0.110867,-63.47156 0,0 4e-5,0 0.859262,-0.23097 z"
       id="path6" /></g></svg>
